<?xml version="1.0" encoding="UTF-8" standalone="no"?><!DOCTYPE svg PUBLIC "-//W3C//DTD SVG 1.1//EN" "http://www.w3.org/Graphics/SVG/1.1/DTD/svg11.dtd"><svg width="100%" height="100%" viewBox="0 0 720 720" version="1.1" xmlns="http://www.w3.org/2000/svg" xmlns:xlink="http://www.w3.org/1999/xlink" xml:space="preserve" xmlns:serif="http://www.serif.com/" style="fill-rule:evenodd;clip-rule:evenodd;stroke-linecap:round;stroke-linejoin:round;stroke-miterlimit:1.5;"><g><path d="M132.051,122.254l487.092,0.022l-40.647,80.983l-0.01,373.164l-53.811,94.517l-484.303,-0.009l51.818,-94.514l-0.01,-373.172l39.871,-80.991Z" style="fill:#fcebb7;stroke:#000;stroke-width:10.61px;"/><path d="M127.029,225.682l425.034,-0" style="fill:none;stroke:#000;stroke-width:7.72px;stroke-linejoin:miter;stroke-miterlimit:1;stroke-dasharray:7.72,15.44,15.44,7.72;"/><path d="M119.858,259.625l425.034,0" style="fill:none;stroke:#000;stroke-width:7.72px;stroke-linejoin:miter;stroke-miterlimit:1;stroke-dasharray:23.16,15.44,15.44,7.72;stroke-dashoffset:7.72;"/><path d="M117.467,293.569l425.034,-0" style="fill:none;stroke:#000;stroke-width:7.72px;stroke-linejoin:miter;stroke-miterlimit:1;stroke-dasharray:23.16,0.39,0,15.44;stroke-dashoffset:7.72;"/><path d="M117.467,327.513l425.034,-0" style="fill:none;stroke:#000;stroke-width:7.72px;stroke-linejoin:miter;stroke-miterlimit:1;stroke-dasharray:7.72,15.44,23.16,7.72;stroke-dashoffset:7.72;"/><path d="M117.467,361.456l425.034,0" style="fill:none;stroke:#000;stroke-width:7.72px;stroke-linejoin:miter;stroke-miterlimit:1;stroke-dasharray:23.16,30.88,0,0;"/><path d="M117.467,395.4l425.034,0" style="fill:none;stroke:#000;stroke-width:7.72px;stroke-linejoin:miter;stroke-miterlimit:1;stroke-dasharray:23.16,0.39,15.44,7.72;stroke-dashoffset:7.72;"/><path d="M117.467,429.344l425.034,-0" style="fill:none;stroke:#000;stroke-width:7.72px;stroke-linejoin:miter;stroke-miterlimit:1;stroke-dasharray:7.72,0.39,23.16,7.72;stroke-dashoffset:7.72;"/><path d="M117.467,463.287l425.034,0" style="fill:none;stroke:#000;stroke-width:7.72px;stroke-linejoin:miter;stroke-miterlimit:1;stroke-dasharray:23.16,15.44,15.44,7.72;stroke-dashoffset:15.44;"/><path d="M117.467,497.231l425.034,0" style="fill:none;stroke:#000;stroke-width:7.72px;stroke-linejoin:miter;stroke-miterlimit:1;stroke-dasharray:23.16,15.44,15.44,7.72;stroke-dashoffset:38.6;"/><path d="M117.467,531.175l425.034,-0" style="fill:none;stroke:#000;stroke-width:7.72px;stroke-linejoin:miter;stroke-miterlimit:1;stroke-dasharray:7.72,15.44,15.44,7.72;"/></g><g><path d="M46.281,168.344l89.397,-71.38c15.453,-8.012 31.703,16.087 26.65,37.741" style="fill:none;stroke:#000;stroke-width:17.76px;stroke-linejoin:miter;stroke-miterlimit:1;"/><ellipse cx="146.713" cy="168.659" rx="98.441" ry="101.195" style="fill:#00cfff;fill-opacity:0.25;stroke:#000;stroke-width:22.5px;"/><path d="M245.154,168.659c24.008,-45.861 47.059,-45.549 69.175,0" style="fill:none;stroke:#000;stroke-width:22.5px;"/><ellipse cx="412.77" cy="168.659" rx="98.441" ry="101.195" style="fill:#00cfff;fill-opacity:0.25;stroke:#000;stroke-width:22.5px;"/><path d="M515.037,168.344l89.396,-71.38c15.454,-8.012 31.704,16.087 26.651,37.741" style="fill:none;stroke:#000;stroke-width:17.76px;stroke-linejoin:miter;stroke-miterlimit:1;"/></g><path d="M336.737,496.901c57.265,21.388 112.621,85.099 166.364,184.55c25.067,-151.678 94.136,-287.45 175.607,-418.739" style="fill:none;stroke:#07ea00;stroke-width:35.36px;stroke-miterlimit:1;"/></svg>